<mxfile host="65bd71144e">
    <diagram id="uAzEkuefaQ9cCqE6udIH" name="Page-1">
        <mxGraphModel dx="1508" dy="760" grid="1" gridSize="10" guides="1" tooltips="1" connect="1" arrows="1" fold="1" page="1" pageScale="1" pageWidth="850" pageHeight="1100" math="0" shadow="0">
            <root>
                <mxCell id="0"/>
                <mxCell id="1" parent="0"/>
                <mxCell id="2" value="" style="whiteSpace=wrap;html=1;" vertex="1" parent="1">
                    <mxGeometry x="50" y="120" width="670" height="730" as="geometry"/>
                </mxCell>
                <mxCell id="3" value="Heading" style="whiteSpace=wrap;html=1;" vertex="1" parent="1">
                    <mxGeometry x="305" y="150" width="120" height="60" as="geometry"/>
                </mxCell>
                <mxCell id="4" value="&amp;lt;select&amp;gt;" style="whiteSpace=wrap;html=1;" vertex="1" parent="1">
                    <mxGeometry x="230" y="270" width="120" height="50" as="geometry"/>
                </mxCell>
                <mxCell id="6" value="Heading" style="whiteSpace=wrap;html=1;" vertex="1" parent="1">
                    <mxGeometry x="510" y="260" width="120" height="60" as="geometry"/>
                </mxCell>
                <mxCell id="7" value="conditional radio&lt;br&gt;&amp;lt;radio&amp;gt;" style="whiteSpace=wrap;html=1;" vertex="1" parent="1">
                    <mxGeometry x="100" y="480" width="250" height="80" as="geometry"/>
                </mxCell>
                <mxCell id="9" value="" style="whiteSpace=wrap;html=1;" vertex="1" parent="1">
                    <mxGeometry x="505" y="430" width="130" height="140" as="geometry"/>
                </mxCell>
                <mxCell id="10" value="Choose a gov" style="whiteSpace=wrap;html=1;" vertex="1" parent="1">
                    <mxGeometry x="100" y="285" width="120" height="20" as="geometry"/>
                </mxCell>
                <mxCell id="11" value="Choose a facility" style="whiteSpace=wrap;html=1;" vertex="1" parent="1">
                    <mxGeometry x="100" y="375" width="120" height="20" as="geometry"/>
                </mxCell>
                <mxCell id="12" value="&amp;lt;select&amp;gt;" style="whiteSpace=wrap;html=1;" vertex="1" parent="1">
                    <mxGeometry x="230" y="360" width="120" height="50" as="geometry"/>
                </mxCell>
                <mxCell id="13" value="Purchase B&lt;br&gt;&amp;lt;button&amp;gt;" style="whiteSpace=wrap;html=1;" vertex="1" parent="1">
                    <mxGeometry x="530" y="520" width="80" height="40" as="geometry"/>
                </mxCell>
            </root>
        </mxGraphModel>
    </diagram>
</mxfile>